<svg width="200" height="200" xmlns="http://www.w3.org/2000/svg">
 <!-- Created with Method Draw - http://github.com/duopixel/Method-Draw/ -->
 <g>
  <title>background</title>
  <rect fill="none" id="canvas_background" height="202" width="202" y="-1" x="-1"/>
  <g display="none" overflow="visible" y="0" x="0" height="100%" width="100%" id="canvasGrid">
   <rect fill="url(#gridpattern)" stroke-width="0" y="0" x="0" height="100%" width="100%"/>
  </g>
 </g>
 <g>
  <title>Layer 1</title>
  <path id="svg_1" d="m51.20802,76.06628c10.61313,20.4979 12.68507,26.72283 9.17599,27.5682c-6.85476,1.65141 -5.47728,11.09604 4.1171,28.22877c12.03238,21.48633 35.60012,34.68089 57.73749,32.32475c8.59245,-0.91453 18.30659,-2.80189 21.58699,-4.19419c3.28038,-1.39232 1.26741,1.20142 -4.47327,5.76382c-28.71818,22.82373 -64.18639,21.23387 -92.48233,-4.14548c-11.28212,-10.11926 -26.80456,-39.68492 -26.80456,-51.05482c0,-3.22102 -2.55912,-6.34205 -5.68692,-6.9356c-5.11516,-0.97069 -4.42822,-3.52654 6.83257,-25.42136c6.88573,-13.38821 13.3675,-25.30253 14.40395,-26.47627c1.03647,-1.17374 8.05331,9.78023 15.593,24.34218l-0.00001,0.00001zm91.22896,39.51743c-10.61313,-20.49789 -12.68507,-26.72285 -9.17601,-27.5682c6.85476,-1.65138 5.47729,-11.09604 -4.11708,-28.22877c-12.03238,-21.48634 -35.60014,-34.6809 -57.7375,-32.32476c-8.59245,0.91452 -18.30658,2.80191 -21.58696,4.19422c-3.28039,1.39229 -1.26742,-1.20143 4.47326,-5.76383c28.71818,-22.82374 64.1864,-21.23389 92.48233,4.14549c11.28212,10.11922 26.80456,39.68491 26.80456,51.05478c0,3.22104 2.55914,6.34205 5.68691,6.9356c5.11518,0.9707 4.42822,3.52654 -6.83255,25.42137c-6.88572,13.38819 -13.36751,25.30252 -14.40395,26.47627c-1.03647,1.17374 -8.05331,-9.78022 -15.593,-24.34218l0,-0.00001z" stroke-width="1.5" stroke="#000" fill="#7f00ff"/>
  <text font-weight="bold" transform="matrix(3.08949, 0, 0, 1.99765, -208.257, -72.2746)" xml:space="preserve" text-anchor="start" font-family="'Shadows Into Light', serif" font-size="35" id="svg_2" y="88.51353" x="86.47103" stroke-opacity="null" stroke-width="0" stroke="#000" fill="#000000">D</text>
  <text transform="matrix(3.11072, 0, 0, 1.64822, -186.799, -42.0188)" xml:space="preserve" text-anchor="start" font-family="'Shadows Into Light', serif" font-size="35" id="svg_3" y="107.82014" x="86.89266" fill-opacity="null" stroke-opacity="null" stroke-width="0" stroke="#000" fill="#000000">C</text>
 </g>
</svg>