<svg width="250" height="250" xmlns="http://www.w3.org/2000/svg">
 <!-- Created with Method Draw - http://github.com/duopixel/Method-Draw/ -->
 <g>
  <title>background</title>
  <rect fill="none" id="canvas_background" height="252" width="252" y="-1" x="-1"/>
  <g display="none" overflow="visible" y="0" x="0" height="100%" width="100%" id="canvasGrid">
   <rect fill="url(#gridpattern)" stroke-width="0" y="0" x="0" height="100%" width="100%"/>
  </g>
 </g>
 <g>
  <title>Layer 1</title>
  <path id="svg_1" d="m310.44041,246.05293c14.95768,23.95394 17.8778,31.22842 12.93225,32.21632c-9.6608,1.92984 -7.71944,12.96689 5.80246,32.98827c16.95791,25.10902 50.17327,40.52825 81.37272,37.77484c12.10983,-1.06872 25.80052,-3.2743 30.42377,-4.90135c4.62322,-1.62707 1.78623,1.40398 -6.30443,6.73563c-40.47416,26.67192 -90.46153,24.814 -130.3406,-4.84443c-15.90053,-11.82541 -37.77719,-46.37597 -37.77719,-59.66289c0,-3.76409 -3.60671,-7.41135 -8.0149,-8.10497c-7.20908,-1.13435 -6.24094,-4.12113 9.62953,-29.70752c9.70444,-15.64552 18.83958,-29.56866 20.3003,-30.94029c1.46075,-1.37164 11.34999,11.42923 21.9761,28.44638l-0.00001,0.00001zm128.57416,46.18025c-14.95769,-23.95393 -17.8778,-31.22844 -12.93227,-32.21632c9.6608,-1.92981 7.71945,-12.96688 -5.80243,-32.98827c-16.95792,-25.10903 -50.17331,-40.52826 -81.37274,-37.77486c-12.10983,1.06871 -25.8005,3.27433 -30.42373,4.90139c-4.62325,1.62704 -1.78625,-1.404 6.30442,-6.73564c40.47417,-26.67193 90.46154,-24.81402 130.34061,4.84444c15.90054,11.82537 37.77719,46.37596 37.77719,59.66285c0,3.76412 3.60674,7.41135 8.01488,8.10497c7.20912,1.13437 6.24095,4.12113 -9.6295,29.70753c-9.70444,15.6455 -18.83959,29.56864 -20.3003,30.94029c-1.46076,1.37164 -11.34999,-11.42921 -21.9761,-28.44638l0,-0.00001z" stroke-width="1.5" stroke="#000" fill="#aa56ff"/>
  <text transform="matrix(3.73256, 0, 0, 5.03116, -1104.25, -1035.16)" xml:space="preserve" text-anchor="start" font-family="'Shadows Into Light', serif" font-size="24" id="svg_2" y="266.99381" x="383.29536" stroke-width="0" stroke="#000" fill="#000000">DC</text>
  <path id="svg_3" d="m80.57475,97.02228c11.79236,21.45129 14.09453,27.96575 10.19555,28.85044c-7.6164,1.72821 -6.08587,11.61214 4.57455,29.54174c13.36931,22.4857 39.55569,36.29396 64.15277,33.82822c9.54717,-0.95707 20.34066,-2.93221 23.98554,-4.38927c3.64486,-1.45708 1.40823,1.2573 -4.9703,6.03191c-31.90909,23.8853 -71.31822,22.22149 -102.75815,-4.33829c-12.53569,-10.58992 -29.78285,-41.53073 -29.78285,-53.42946c0,-3.37083 -2.84346,-6.63703 -6.3188,-7.25819c-5.68351,-1.01584 -4.92024,-3.69056 7.59174,-26.60375c7.65081,-14.01092 14.85278,-26.4794 16.00439,-27.70773c1.15163,-1.22833 8.94812,10.23513 17.32556,25.47438l-0.00001,0.00001zm101.36553,41.35545c-11.79237,-21.45129 -14.09453,-27.96577 -10.19557,-28.85044c7.6164,-1.72818 6.08587,-11.61213 -4.57453,-29.54174c-13.36932,-22.4857 -39.55572,-36.29397 -64.15279,-33.82824c-9.54717,0.95705 -20.34064,2.93223 -23.98552,4.3893c-3.64488,1.45705 -1.40825,-1.25732 4.97029,-6.03192c31.90909,-23.88531 71.31823,-22.22152 102.75816,4.3383c12.5357,10.58989 29.78285,41.53072 29.78285,53.42942c0,3.37085 2.84349,6.63703 6.31879,7.25819c5.68353,1.01585 4.92025,3.69056 -7.59172,26.60376c-7.6508,14.0109 -14.85279,26.47939 -16.00439,27.70773c-1.15164,1.22833 -8.94812,-10.23512 -17.32556,-25.47437l0,-0.00001z" stroke-opacity="null" stroke-width="1.5" stroke="#000" fill="#aa56ff"/>
  <text font-style="italic" font-weight="bold" transform="matrix(2.36648, 0, 0, 2.27382, -256.786, -153.071)" xml:space="preserve" text-anchor="start" font-family="Euphoria, sans-serif" font-size="24" id="svg_4" y="129.40943" x="145.93109" stroke-opacity="null" stroke-width="0" stroke="#000" fill="#191919">DC</text>
 </g>
</svg>